<svg width="20" height="20" viewBox="0 0 20 20" fill="none" xmlns="http://www.w3.org/2000/svg">
<path fill-rule="evenodd" clip-rule="evenodd" d="M1.05849 1.05718C1.57919 0.536482 2.42341 0.536482 2.94411 1.05718L10.0013 8.11437L17.0585 1.05718C17.5792 0.536482 18.4234 0.536482 18.9441 1.05718C19.4648 1.57788 19.4648 2.4221 18.9441 2.9428L11.8869 9.99999L18.9441 17.0572C19.4648 17.5779 19.4648 18.4221 18.9441 18.9428C18.4234 19.4635 17.5792 19.4635 17.0585 18.9428L10.0013 11.8856L2.94411 18.9428C2.42341 19.4635 1.57919 19.4635 1.05849 18.9428C0.537794 18.4221 0.537794 17.5779 1.05849 17.0572L8.11568 9.99999L1.05849 2.9428C0.537794 2.4221 0.537794 1.57788 1.05849 1.05718Z" fill="#0073E1"/>
</svg>
